<svg width="531" height="531" viewBox="0 0 531 531" fill="none" xmlns="http://www.w3.org/2000/svg">
<path d="M182.125 21.3125C182.744 21.5394 183.363 21.7663 184 22C184.99 22 185.98 22 187 22C188.32 22 189.64 22 191 22C191 22.66 191 23.32 191 24C193.31 23.34 195.62 22.68 198 22C198 22.66 198 23.32 198 24C198.66 24 199.32 24 200 24C200.33 24.66 200.66 25.32 201 26C201.99 25.67 202.98 25.34 204 25C204 26.98 204 28.96 204 31C204.99 31.495 204.99 31.495 206 32C205.67 34.31 205.34 36.62 205 39C203.02 39.495 203.02 39.495 201 40C201 40.99 201 41.98 201 43C200.34 43 199.68 43 199 43C198.67 44.32 198.34 45.64 198 47C194.123 48.1929 191.084 49 187 49C186.66 49.8663 186.66 49.8663 186.312 50.75C184.627 53.6389 182.773 55.1513 180 57C178.68 57 177.36 57 176 57C174.064 58.7445 174.064 58.7445 172.375 61C171.289 62.3655 170.171 63.7074 169 65C168.34 65 167.68 65 167 65C167.041 65.9488 167.082 66.8975 167.125 67.875C167 71 167 71 165 73C164.34 72.67 163.68 72.34 163 72C162.67 72.66 162.34 73.32 162 74C161.01 73.67 160.02 73.34 159 73C158.732 73.7632 158.464 74.5263 158.188 75.3125C157.056 77.8738 156.088 79.197 154 81C153.01 80.67 152.02 80.34 151 80C151.184 80.7155 151.369 81.4309 151.559 82.168C152.036 85.2278 151.743 87.3084 151.062 90.3125C150.771 91.637 150.771 91.637 150.473 92.9883C150.239 93.9841 150.239 93.9841 150 95C147.03 95.99 147.03 95.99 144 97C144.035 97.6639 144.07 98.3278 144.105 99.0117C144.271 104.412 144.111 107.454 141 112C140.441 113.968 140.014 115.93 139.625 117.938C139 120 139 120 137.486 121.984C135.311 126.399 135.571 130.461 135.602 135.32C135.599 136.334 135.596 137.347 135.593 138.391C135.591 140.541 135.596 142.691 135.609 144.841C135.625 148.065 135.609 151.288 135.59 154.512C135.572 170.761 136.407 186.972 142.25 202.313C142.706 203.552 142.706 203.552 143.17 204.816C147.79 217.092 153.613 227.842 162 238C162.761 238.926 163.521 239.851 164.305 240.805C188.901 269.272 224.855 279.67 260.836 284.859C291.919 289.418 319.865 299.839 340 325C344.862 331.717 348.555 338.736 351.562 346.438C351.826 347.1 352.09 347.762 352.362 348.444C353.964 352.828 353.855 355.497 353 360C353.035 365.025 353.394 370.042 353.684 375.059C353.982 380.876 353.943 386.247 353 392C352.34 392 351.68 392 351 392C351.062 392.928 351.124 393.856 351.188 394.813C351 398 351 398 349.75 399.875C348 401 348 401 344 401C343.79 405.141 343.79 405.141 345 409C344.34 409 343.68 409 343 409C343 411.31 343 413.62 343 416C340.69 416.33 338.38 416.66 336 417C336.66 418.65 337.32 420.3 338 422C337.01 422.33 336.02 422.66 335 423C335 424.65 335 426.3 335 428C333.68 428.33 332.36 428.66 331 429C330.938 429.928 330.938 429.928 330.875 430.875C330.586 431.576 330.298 432.278 330 433C326.938 434.25 326.938 434.25 324 435C324.99 435.66 325.98 436.32 327 437C326.67 438.32 326.34 439.64 326 441C325.134 440.66 325.134 440.66 324.25 440.313C321.901 439.723 321.901 439.723 320 441.438C319.34 441.953 318.68 442.469 318 443C316.68 443 315.36 443 314 443C314 442.01 314 441.02 314 440C313.01 440 312.02 440 311 440C311.33 442.64 311.66 445.28 312 448C310.02 448.66 308.04 449.32 306 450C306 449.34 306 448.68 306 448C305.113 448.371 304.226 448.743 303.312 449.125C299.592 450.108 298.326 449.761 295 448C295.186 448.763 295.371 449.526 295.562 450.313C296 453 296 453 295 456C293.063 456.168 291.125 456.335 289.188 456.5C288.109 456.593 287.03 456.686 285.918 456.781C283 457 283 457 280 457C280 461.62 280 466.24 280 471C280.99 470.67 281.98 470.34 283 470C283.05 474.604 283.086 479.208 283.11 483.812C283.12 485.373 283.133 486.933 283.151 488.493C283.384 509.847 283.384 509.847 280 520C279.01 520 278.02 520 277 520C276.67 520.66 276.34 521.32 276 522C273.938 522.625 273.938 522.625 272 523C272 524.32 272 525.64 272 527C272.99 527 273.98 527 275 527C271.824 530.176 268.487 530.169 264.125 530.25C258.779 530.164 255.234 529.224 251.34 525.348C248.867 522.583 247.185 520.555 246 517C246.66 516.67 247.32 516.34 248 516C248.66 516.33 249.32 516.66 250 517C250 516.34 250 515.68 250 515C249.01 514.67 248.02 514.34 247 514C246.016 507.464 245.869 501.103 245.902 494.5C245.904 492.886 245.904 492.886 245.907 491.239C245.912 487.826 245.925 484.413 245.938 481C245.943 478.676 245.947 476.352 245.951 474.027C245.962 468.352 245.979 462.676 246 457C243.69 457 241.38 457 239 457C239.66 457.66 240.32 458.32 241 459C234.729 458.474 229.242 457.388 223.312 455.313C222.529 455.041 221.746 454.77 220.939 454.491C218.62 453.676 216.309 452.841 214 452C212.821 451.58 211.641 451.16 210.426 450.727C194.187 444.385 179.835 433.633 167 422C166.064 421.172 165.128 420.345 164.164 419.492C161.754 417.351 159.372 415.184 157 413C156.134 412.216 155.267 411.433 154.375 410.625C146.129 401.511 141.474 394.714 141.691 382.352C142.239 376.4 145.215 373.624 149.375 369.75C154.033 365.998 157.896 364.77 163.875 365.063C173.855 366.403 180.635 373.63 187 381C187 381.66 187 382.32 187 383C187.585 383.25 188.17 383.5 188.773 383.758C191.299 385.167 192.704 386.717 194.625 388.875C209.936 404.514 235.014 418.339 257.245 419.074C259.789 419.098 262.331 419.087 264.875 419.063C266.194 419.056 266.194 419.056 267.539 419.049C269.693 419.037 271.846 419.019 274 419C274.66 420.32 275.32 421.64 276 423C280.913 422.181 283.884 421.346 287.125 417.438C291.568 413.671 296.365 414 302 414C302 412.02 302 410.04 302 408C303.207 407.567 303.207 407.567 304.438 407.125C307.133 406.267 307.133 406.267 308 404C308.987 402.657 309.986 401.323 311 400C310.01 399.67 309.02 399.34 308 399C308.33 398.34 308.66 397.68 309 397C309.66 397 310.32 397 311 397C313.053 381.018 314.649 364.116 305.121 350.27C292.202 334.543 272.941 330.237 253.779 327.403C231.29 324.046 209.817 319.394 189 310C188.284 309.678 187.568 309.355 186.83 309.023C178.417 305.172 170.645 300.739 163.134 295.325C159.101 292.476 155.713 291.165 151 290C150.67 289.67 150.34 289.34 150 289C148.326 288.911 146.649 288.893 144.973 288.902C143.888 288.906 142.803 288.909 141.686 288.912C140.49 288.921 139.294 288.929 138.062 288.938C135.49 288.946 132.918 288.955 130.346 288.963C128.97 288.969 127.594 288.975 126.218 288.982C119.153 289.014 112.088 289.026 105.023 289.031C103.953 289.032 103.953 289.032 102.861 289.033C88.4454 289.039 74.0372 288.826 59.625 288.5C58.5628 288.476 57.5006 288.452 56.4062 288.427C50.6039 288.294 44.8019 288.152 39 288C39 288.66 39 289.32 39 290C35.169 290.316 31.3362 290.569 27.5 290.813C25.8835 290.947 25.8835 290.947 24.2344 291.084C17.0496 291.5 12.5119 290.783 7 286C2.24974 281.125 0.903815 276.304 0.5625 269.625C0.695769 263.086 2.99836 259.08 7.49219 254.469C13.6187 249.009 19.0135 248.712 26.8391 248.773C28.3179 248.773 28.3179 248.773 29.8265 248.772C33.0784 248.773 36.3301 248.789 39.582 248.805C41.8393 248.808 44.0966 248.811 46.3539 248.813C52.2904 248.821 58.2267 248.841 64.1631 248.863C70.2226 248.883 76.2822 248.892 82.3418 248.902C94.2279 248.924 106.114 248.958 118 249C117.384 247.855 116.767 246.71 116.132 245.53C115.315 244 114.497 242.471 113.68 240.941C113.275 240.19 112.869 239.438 112.452 238.664C109.047 232.278 106.413 225.825 104 219C103.517 217.814 103.033 216.628 102.535 215.406C96.8052 200.091 90.5627 172.539 96.8904 156.783C98 155 98 155 100.125 153.563C102.254 152.148 102.254 152.148 102.312 149.625C102.046 147.006 102.046 147.006 101.438 144.5C100.817 140.953 101.4 138.201 103 135C102.34 135 101.68 135 101 135C100.836 129.259 101.369 124.633 105 120C108.188 118.688 108.188 118.688 111 118C110.041 115.669 110.041 115.669 107 114C107.66 113.34 108.32 112.68 109 112C108.678 108.901 108.678 108.901 108 106C107.34 106 106.68 106 106 106C105.443 107.454 105.443 107.454 104.875 108.938C103 112 103 112 99.9375 112.938C97 113 97 113 95 112C95.2784 113.609 95.2784 113.609 95.5625 115.25C96.143 120.225 95.4412 122.721 92.5234 126.723C92.0213 127.42 91.5193 128.117 91.002 128.835C90.4651 129.57 89.9282 130.305 89.375 131.063C88.2666 132.611 87.1599 134.16 86.0547 135.711C85.522 136.457 84.9893 137.203 84.4404 137.972C72.1719 155.247 62.893 174.401 55 194C54.3748 193.811 53.7496 193.621 53.1055 193.426C52.0633 193.215 52.0633 193.215 51 193C49.2092 194.124 49.2092 194.124 48 196C47.9175 196.66 47.835 197.32 47.75 198C47 200 47 200 43.4375 201.75C41.7359 202.369 41.7359 202.369 40 203C40 203.99 40 204.98 40 206C39.01 206.33 38.02 206.66 37 207C37.99 207.66 38.98 208.32 40 209C39 210 39 210 35.4375 210.313C30.5747 210.217 26.9062 208.899 23 206C17.688 200.377 15.7 195.939 15.8169 188.15C16.1284 184.492 17.2226 181.198 18.4375 177.75C18.7005 176.985 18.9634 176.22 19.2344 175.432C22.5641 166.028 26.6613 156.975 31 148C31.7889 146.327 31.7889 146.327 32.5938 144.621C35.0421 139.949 36.803 137.637 41.875 135.875C43.2415 135.546 44.6151 135.24 46 135C46.0619 134.258 46.1238 133.515 46.1875 132.75C47.2508 129.151 48.9522 128.081 52 126C52.66 125.67 53.32 125.34 54 125C53.9794 124.031 53.9588 123.061 53.9375 122.063C54 119 54 119 55 118C54.01 117.01 54.01 117.01 53 116C54.8125 113.5 54.8125 113.5 57 111C60 111 60 111 62 112C61.9381 111.237 61.8762 110.474 61.8125 109.688C62 107 62 107 63.5 105.25C63.995 104.838 64.49 104.425 65 104C65 103.67 65 103.34 65 103C66.65 103 68.3 103 70 103C69.67 101.35 69.34 99.7 69 98C69.66 98 70.32 98 71 98C71.0864 97.3246 71.1727 96.6491 71.2617 95.9532C72.4237 88.5764 72.4237 88.5764 75.625 85.375C76.4087 84.9213 77.1925 84.4675 78 84C77.67 86.64 77.34 89.28 77 92C77.66 92 78.32 92 79 92C79.0413 91.4432 79.0825 90.8863 79.125 90.3125C80.2344 87.3805 82.0869 86.3557 84.5117 84.4922C86.7235 82.2746 87.4135 79.8331 88.2617 76.8672C89.1606 74.594 90.0495 73.4742 92 72C94.7251 71.6092 97.2312 71.8639 100 72C100 71.34 100 70.68 100 70C102.263 67.4855 104.169 65.3926 107.25 63.9375C107.827 63.6282 108.405 63.3188 109 63C109.144 62.4019 109.289 61.8038 109.438 61.1875C110.287 57.8836 112.548 56.2633 115 54C115.33 54.66 115.66 55.32 116 56C116.99 56 117.98 56 119 56C119.041 55.4225 119.082 54.845 119.125 54.25C120.482 50.7596 122.781 49.7616 126 48C127.072 47.835 128.145 47.67 129.25 47.5C130.158 47.335 131.065 47.17 132 47C133.2 45.184 133.2 45.184 134 43C136.356 40.3397 137.592 39.136 141 38C141 38.66 141 39.32 141 40C141.66 40 142.32 40 143 40C143.33 39.34 143.66 38.68 144 38C146 38 148 38 150 38C150.66 35.69 151.32 33.38 152 31C154.018 31.0326 156.036 31.0651 158.055 31.0977C160.082 31.1265 160.082 31.1265 162 30C162 30.66 162 31.32 162 32C163.32 31.67 164.64 31.34 166 31C165.959 30.2163 165.918 29.4325 165.875 28.625C166 26 166 26 168 24C170.318 23.2808 172.651 22.609 175 22C175 22.66 175 23.32 175 24C176.114 23.2266 176.114 23.2266 177.25 22.4375C180 21 180 21 182.125 21.3125Z" fill="#094F73"/>
<path d="M261 6C263.336 6.31446 265.669 6.65036 268 7C270.002 6.67966 272.002 6.34741 274 6C276.875 6.4375 276.875 6.4375 279 7C279.061 7.63809 279.121 8.27617 279.184 8.93359C279.267 9.75988 279.351 10.5862 279.437 11.4375C279.519 12.2612 279.6 13.0849 279.684 13.9336C279.789 15.9866 279.789 15.9866 281 17C281.043 18.9995 281.041 21.0004 281 23C281 23.66 281 24.32 281 25C281 26.6667 281 28.3333 281 30C280.67 30 280.34 30 280 30C279.973 31.4791 279.954 32.9583 279.937 34.4375C279.926 35.2612 279.914 36.0849 279.902 36.9336C279.767 38.9916 279.767 38.9916 281 40C281.087 41.8537 281.107 43.7107 281.098 45.5664C281.093 47.2535 281.093 47.2535 281.088 48.9746C281.075 50.7506 281.075 50.7506 281.062 52.5625C281.058 53.7504 281.053 54.9382 281.049 56.1621C281.037 59.1081 281.021 62.054 281 65C280.34 65 279.68 65 279 65C279.168 65.5917 279.335 66.1834 279.508 66.793C279.711 67.5832 279.915 68.3734 280.125 69.1875C280.438 70.3535 280.438 70.3535 280.758 71.543C281.054 74.5455 280.29 76.3107 279 79C280.611 79.0735 280.611 79.0735 282.254 79.1484C283.69 79.2235 285.126 79.2991 286.562 79.375C287.267 79.4059 287.971 79.4369 288.697 79.4688C293.409 79.7293 297.554 80.3711 302 82C302.516 82.8662 303.031 83.7325 303.562 84.625C304.037 85.4087 304.511 86.1925 305 87C307.958 87.4168 307.958 87.4168 311 87C314.85 87 316.742 87.0628 320 89C320.812 92.125 320.812 92.125 321 95C322.072 94.835 323.145 94.67 324.25 94.5C328.235 93.9687 331.164 93.7214 335 95C335.33 97.64 335.66 100.28 336 103C336.598 102.794 337.196 102.588 337.812 102.375C340 102 340 102 343 104C343.687 107.625 343.687 107.625 344 111C346.97 110.505 346.97 110.505 350 110C350 109.01 350 108.02 350 107C350.99 107.33 351.98 107.66 353 108C353 111.63 353 115.26 353 119C355.64 119 358.28 119 361 119C360.01 119.495 360.01 119.495 359 120C359 121.32 359 122.64 359 124C361.64 124.33 364.28 124.66 367 125C368 128 369 131 370 134C370.66 134 371.32 134 372 134C372.33 132.68 372.66 131.36 373 130C375.468 131.152 377.048 132.048 379 134C379.14 136.261 378.996 138.45 378.875 140.711C379.016 143.287 379.789 144.754 381 147C380.875 149.062 380.875 149.062 380 151C379.34 151.454 378.68 151.907 378 152.375C375.231 154.625 375.493 156.549 375 160C373.625 162.375 373.625 162.375 372 164C371.01 164 370.02 164 369 164C368.814 164.959 368.814 164.959 368.625 165.938C368.419 166.618 368.212 167.299 368 168C364.987 169.507 362.317 169.178 359 169C358.34 168.34 357.68 167.68 357 167C357.375 164.375 357.375 164.375 358 162C356.68 162 355.36 162 354 162C353.01 161.34 352.02 160.68 351 160C351 159.01 351 158.02 351 157C350.01 156.67 349.02 156.34 348 156C348.99 155.01 349.98 154.02 351 153C350.34 152.67 349.68 152.34 349 152C348.67 152.66 348.34 153.32 348 154C345.076 153.373 342.552 152.584 340 151C339.67 150.01 339.34 149.02 339 148C337 146.791 337 146.791 335 146C335 144.68 335 143.36 335 142C333.35 141.67 331.7 141.34 330 141C331.32 140.01 332.64 139.02 334 138C331.063 136.741 331.063 136.741 328.199 137.586C322.385 138.338 317.585 135.4 313 132C311.659 129.591 311.067 127.663 310.625 124.953C310.165 122.836 310.165 122.836 308.145 121.699C305.838 120.763 305.838 120.763 302.687 121.562C298.183 122.097 295.995 121.035 292 119C291.196 118.608 290.391 118.216 289.562 117.812C289.047 117.544 288.531 117.276 288 117C288.66 117 289.32 117 290 117C289.67 116.01 289.34 115.02 289 114C287.396 113.973 285.792 113.954 284.187 113.938C282.848 113.92 282.848 113.92 281.48 113.902C278.866 113.89 278.866 113.89 276 115C272.191 115.232 268.377 115.185 264.562 115.188C263.513 115.2 262.463 115.212 261.381 115.225C259.864 115.228 259.864 115.228 258.316 115.23C257.393 115.235 256.469 115.239 255.518 115.243C252.871 114.988 251.308 114.261 249 113C246.855 112.969 246.855 112.969 244.75 113.375C242.894 113.684 242.894 113.684 241 114C241 115.32 241 116.64 241 118C240.34 118 239.68 118 239 118C239 118.66 239 119.32 239 120C235.713 120.8 234.29 121.097 231 120C231.66 121.32 232.32 122.64 233 124C232.072 124.619 231.144 125.238 230.187 125.875C229.136 126.576 228.084 127.277 227 128C226.01 128.66 225.02 129.32 224 130C224.33 130.66 224.66 131.32 225 132C224.328 134.102 224.328 134.102 223.25 136.625C222.877 137.518 222.505 138.412 222.121 139.332C221.751 140.212 221.381 141.093 221 142C216.486 153.316 215.308 163.383 219.617 175.016C225.665 188.068 235.845 196.468 249.047 201.707C255.74 204.02 262.696 205.16 269.65 206.399C313.026 214.181 313.026 214.181 330 220C330.817 220.279 331.635 220.558 332.477 220.845C349.463 226.796 365.497 235.361 379.004 247.355C380.998 249.199 380.998 249.199 384 250C384 250.66 384 251.32 384 252C385.792 251.884 385.792 251.884 387.621 251.766C406.563 250.681 425.482 251.09 444.44 251.395C451.524 251.507 458.608 251.607 465.691 251.709C468.231 251.746 470.771 251.784 473.311 251.822C482.854 251.964 492.394 252.065 501.939 251.957C517.661 251.836 517.661 251.836 521.68 255.555C522.115 256.032 522.551 256.509 523 257C523.99 257.155 523.99 257.155 525 257.312C527 258 527 258 528.75 260.312C530.811 266.392 531.275 272.615 528.98 278.707C526.979 282.451 525.579 284.614 522 287C522 286.34 522 285.68 522 285C521.01 285 520.02 285 519 285C518.67 285.99 518.34 286.98 518 288C513.186 288.782 508.598 289.114 503.723 289.082C503.032 289.079 502.342 289.076 501.631 289.073C500.144 289.065 498.657 289.056 497.17 289.045C494.811 289.027 492.452 289.017 490.092 289.009C483.388 288.984 476.685 288.949 469.981 288.904C465.868 288.877 461.756 288.86 457.644 288.849C456.084 288.843 454.525 288.833 452.966 288.819C445.37 288.752 438.311 288.726 431 291C428.503 291.127 426 291.173 423.5 291.125C422.273 291.107 421.046 291.089 419.781 291.07C418.405 291.036 418.405 291.036 417 291C417.519 292.125 418.039 293.251 418.574 294.41C436.842 334.437 441.04 377.88 427 420C427.887 419.072 428.774 418.144 429.688 417.188C432.261 414.596 434.859 412.868 438 411C438.516 410.299 439.031 409.598 439.562 408.875C441.262 406.658 442.288 406.374 445 406C445.062 405.051 445.124 404.103 445.188 403.125C445.456 402.094 445.724 401.062 446 400C448.476 398.603 450.163 398 453 398C453.309 396.082 453.309 396.082 453.625 394.125C453.741 393.406 453.857 392.686 453.977 391.945C453.984 391.303 453.992 390.661 454 390C453.34 389.34 452.68 388.68 452 388C452.727 386.853 452.727 386.853 453.469 385.684C460.447 374.532 466.888 363.142 472 351C472.66 351 473.32 351 474 351C473.691 352.176 473.691 352.176 473.375 353.375C473.251 354.241 473.127 355.108 473 356C474.646 358.118 474.646 358.118 476 358C476.66 357.34 477.32 356.68 478 356C477.34 356 476.68 356 476 356C476.66 353.36 477.32 350.72 478 348C477.34 347.67 476.68 347.34 476 347C480.579 337.156 480.579 337.156 485.75 334.688C486.493 334.461 487.235 334.234 488 334C487.34 333.67 486.68 333.34 486 333C487.875 331.938 487.875 331.938 490 331C490.66 331.33 491.32 331.66 492 332C492.33 331.01 492.66 330.02 493 329C494.98 329 496.96 329 499 329C499 328.34 499 327.68 499 327C504.06 328.325 507.259 330.344 511 334C512.375 336.812 512.375 336.812 513 339C512.34 339 511.68 339 511 339C511.33 339.99 511.66 340.98 512 342C512.701 349.221 512.231 354.05 508 360C506.68 360 505.36 360 504 360C504.035 360.808 504.07 361.616 504.105 362.449C504.133 363.518 504.16 364.586 504.188 365.688C504.24 367.271 504.24 367.271 504.293 368.887C503.964 372.382 503.123 374.229 501 377C500.34 377 499.68 377 499 377C498.67 377.66 498.34 378.32 498 379C497.67 378.67 497.34 378.34 497 378C497 378.99 497 379.98 497 381C496.691 382.207 496.691 382.207 496.375 383.438C495.729 385.987 495.729 385.987 497.102 387.876C498 390 498 390 497.312 392.198C495.898 394.73 494.473 397.251 493 399.75C492.517 400.638 492.033 401.526 491.535 402.441C490.153 404.827 488.854 406.958 487 409C483.625 409.578 483.625 409.578 481 409C480.856 409.763 480.711 410.526 480.562 411.312C480 414 480 414 479 417C478.01 417.33 477.02 417.66 476 418C475.34 418.99 474.68 419.98 474 421C473.34 421 472.68 421 472 421C471.856 421.619 471.711 422.238 471.562 422.875C471 425 471 425 470 427C469.01 426.67 468.02 426.34 467 426C466.01 426 465.02 426 464 426C464.041 427.176 464.082 428.351 464.125 429.562C464.323 435.197 463.012 439.679 459.574 444.168C458.624 445.186 457.662 446.193 456.688 447.188C456.214 447.695 455.74 448.202 455.252 448.725C450.519 453.716 447.018 457.347 440 458C440.33 458.66 440.66 459.32 441 460C440.34 460 439.68 460 439 460C438.67 460.99 438.34 461.98 438 463C437.299 463.124 436.598 463.248 435.875 463.375C432.823 464.038 429.947 464.972 427 466C427 467.32 427 468.64 427 470C423.873 473.377 420.431 473.574 416 474C416.66 475.32 417.32 476.64 418 478C416.437 479.562 416.437 479.562 414 481C410.25 480.688 410.25 480.688 407 480C407.33 481.32 407.66 482.64 408 484C407.01 484.33 406.02 484.66 405 485C404.526 485.495 404.051 485.99 403.562 486.5C401.65 488.336 400.627 488.7 398 489C395.991 488.729 393.986 488.406 392 488C391.67 490.64 391.34 493.28 391 496C387.452 497.622 384.876 498.102 381 498C380.01 498.33 379.02 498.66 378 499C378 499.66 378 500.32 378 501C377.34 501 376.68 501 376 501C376 501.66 376 502.32 376 503C376.66 503.33 377.32 503.66 378 504C374.863 504.598 372.014 505 368.812 504.938C365.789 504.753 365.789 504.753 363 507C360.668 507.079 358.332 507.088 356 507C355.34 508.32 354.68 509.64 354 511C353.34 511 352.68 511 352 511C352 511.66 352 512.32 352 513C350.762 513.144 349.525 513.289 348.25 513.438C345.95 513.708 344.008 513.997 341.812 514.75C340 515 340 515 337.312 513.812C334.719 511.78 334.598 511.089 334 508C331.185 505.723 331.185 505.723 328 506C327.34 506 326.68 506 326 506C325.67 504.02 325.34 502.04 325 500C324.34 500 323.68 500 323 500C322.67 500.66 322.34 501.32 322 502C321.423 495.746 321.598 491.045 325.305 485.824C329.293 481.532 334.206 478.143 340 477C340.33 477.66 340.66 478.32 341 479C343.97 478.67 346.94 478.34 350 478C350 477.01 350 476.02 350 475C353.722 471.879 357.344 471.54 362.012 471.211C364.073 471.11 364.073 471.11 366 470C365.897 468.969 365.794 467.938 365.687 466.875C366.096 461.81 367.426 460.489 371 457C371.66 457 372.32 457 373 457C373 456.34 373 455.68 373 455C373.66 455 374.32 455 375 455C375 454.34 375 453.68 375 453C374.34 452.67 373.68 452.34 373 452C373.804 451.237 374.609 450.474 375.437 449.688C378.168 447.206 378.168 447.206 379 444C378.34 443.67 377.68 443.34 377 443C377.739 439.047 379.557 435.639 381.312 432.062C384.613 425.199 387.001 418.361 389 411C389.66 411.33 390.32 411.66 391 412C393.432 408.471 393.432 408.471 394 404.312C394 403.549 394 402.786 394 402C394.99 401.34 395.98 400.68 397 400C397.733 396.934 397.733 396.934 398 394C397.34 394 396.68 394 396 394C395.818 389.366 396.231 386.247 398 382C397.67 381.01 397.34 380.02 397 379C396.93 377.323 396.916 375.643 396.937 373.965C396.945 372.991 396.953 372.017 396.961 371.014C396.974 369.999 396.987 368.983 397 367.938C397.025 365.926 397.046 363.914 397.062 361.902C397.08 360.564 397.08 360.564 397.098 359.199C397.148 356.956 397.148 356.956 396 355C395.34 355.33 394.68 355.66 394 356C393.841 354.875 393.683 353.749 393.52 352.59C389.108 322.908 375.586 297.049 351.777 278.402C339.632 269.628 326.206 263.595 312 259C311.024 258.684 310.048 258.367 309.042 258.042C297.252 254.458 285.181 252.638 273.041 250.651C262.418 248.9 251.972 246.925 241.605 243.984C240.765 243.747 239.924 243.509 239.058 243.264C226.423 239.526 215.212 233.306 205 225C204.161 224.336 203.322 223.672 202.457 222.988C186.696 209.768 176.393 190.376 174 170C173.335 160.799 173.05 151.815 176 143C176.66 143 177.32 143 178 143C178.33 143.66 178.66 144.32 179 145C179.99 144.67 180.98 144.34 182 144C181.34 142.02 180.68 140.04 180 138C180.99 137.67 181.98 137.34 183 137C182.752 135.928 182.505 134.855 182.25 133.75C182.126 131.894 182.126 131.894 182 130C183.875 127.875 183.875 127.875 186 126C186.797 123.358 186.797 123.358 187 121C188.32 121.66 189.64 122.32 191 123C191.182 122.301 191.364 121.603 191.551 120.883C191.802 119.973 192.054 119.063 192.312 118.125C192.556 117.22 192.8 116.315 193.051 115.383C194 113 194 113 197 111C197.717 109.018 198.383 107.016 199 105C199.66 104.01 200.32 103.02 201 102C202.32 102 203.64 102 205 102C205.392 101.031 205.784 100.061 206.187 99.0625C208 96 208 96 210.625 95.25C211.409 95.1675 212.192 95.085 213 95C214.062 92.9446 214.062 92.9446 215 90.5C216 88 216 88 217 86C218.299 86.1856 219.599 86.3713 220.937 86.5625C225.541 87.0578 230.563 87.5479 235 86C236.155 84.0489 236.155 84.0489 237 82C239.062 80.875 239.062 80.875 241 80C241.33 79.34 241.66 78.68 242 78C242.66 78 243.32 78 244 78C244 78.66 244 79.32 244 80C246.16 78.2482 246.16 78.2482 246.234 76.1521C246.226 75.4023 246.219 74.6526 246.211 73.8801C246.208 73.0278 246.204 72.1754 246.201 71.2972C246.181 69.9068 246.181 69.9068 246.16 68.4883C246.155 67.5279 246.15 66.5674 246.144 65.5779C246.127 62.4893 246.095 59.401 246.062 56.3125C245.731 20.1547 245.731 20.1547 249 13C249.66 13 250.32 13 251 13C251.33 11.68 251.66 10.36 252 9C253.114 8.87625 254.227 8.7525 255.375 8.625C259.031 8.35342 259.031 8.35342 261 6Z" fill="#0A5175"/>
<path d="M365 67C386.137 76.1344 404.496 92.2494 421 108C421.873 108.831 422.745 109.663 423.644 110.52C429.59 116.319 434.838 122.503 440 129C440.656 129.777 441.312 130.555 441.988 131.355C448.151 138.728 453.067 146.781 458 155C458.542 155.89 458.542 155.89 459.095 156.798C465.598 167.51 471.276 178.91 475.332 190.789C478.064 198.738 481.282 204.141 489 208C497.351 208.912 503.127 207.86 510 203C511 206 511 206 509.937 208.125C507.412 210.569 505.437 210.694 502 211C502 211.66 502 212.32 502 213C472.247 220.415 444.177 215.57 415 208C412.334 207.328 409.667 206.664 407 206C407 205.34 407 204.68 407 204C405.948 203.917 404.896 203.835 403.812 203.75C396.718 202.873 388.969 200.979 383 197C381.099 196.348 379.179 195.751 377.25 195.187C372.572 193.789 367.935 192.322 363.312 190.75C351.95 186.931 340.467 183.487 329 180C328.154 179.741 327.309 179.481 326.438 179.214C319.686 177.159 312.881 175.319 306.062 173.5C302.759 172.616 299.456 171.731 296.155 170.84C294.105 170.294 292.051 169.764 289.993 169.252C284.309 167.806 279.667 166.068 274.625 163.062C274.049 162.728 273.473 162.393 272.879 162.049C267.072 158.616 262.633 154.848 258.375 149.625C257.62 148.71 256.864 147.795 256.086 146.852C249.877 138.363 248.666 130.25 249 120C247.02 120 245.04 120 243 120C247.193 115.807 253.307 115.415 259 115C259.902 114.923 260.805 114.845 261.734 114.766C286.538 113.632 310.923 127.068 329 143C330.208 144.044 330.208 144.044 331.441 145.109C335.184 148.401 338.803 151.77 342.269 155.352C342.836 155.934 343.403 156.516 343.987 157.116C345.091 158.258 346.187 159.41 347.271 160.571C351.738 165.197 355.892 167.661 362.437 168.375C368.591 167.727 373.13 166.356 377.375 161.687C381.048 156.916 382.542 152.275 382.289 146.184C380.927 135.897 374.516 129.571 367.512 122.531C366.179 121.181 364.881 119.796 363.59 118.406C351.643 105.783 335.484 93.0421 319 87C321.793 85.1381 323.662 84.3873 326.832 83.4844C327.789 83.2055 328.746 82.9265 329.733 82.6392C331.257 82.199 331.257 82.199 332.812 81.75C340.888 79.3701 348.537 76.7591 356.16 73.1641C359.121 71.9503 361.834 71.4045 365 71C365 69.68 365 68.36 365 67Z" fill="#B1E1F0"/>
<path d="M55 322C55 322.66 55 323.32 55 324C55.6403 323.995 56.2805 323.989 56.9402 323.984C59.8559 323.963 62.7717 323.95 65.6875 323.937C67.1986 323.925 67.1986 323.925 68.7402 323.912C69.7167 323.909 70.6932 323.906 71.6992 323.902C72.5947 323.897 73.4902 323.892 74.4128 323.886C77 324 77 324 79.6299 324.527C82.9015 325.18 85.7552 324.601 89.0625 324.187C102.002 323.081 114.546 326.907 127 330C128.772 330.435 128.772 330.435 130.579 330.879C151.632 336.085 172.249 342.397 192.875 349.062C193.667 349.318 194.459 349.574 195.276 349.837C255.099 369.174 255.099 369.174 267 390C267 391.32 267 392.64 267 394C267.66 394 268.32 394 269 394C272.085 401.971 272.594 409.496 272 418C271.67 418.66 271.34 419.32 271 420C243.12 421.351 217.922 410.627 197.25 392.062C195.832 390.71 194.415 389.356 193 388C191.947 387.135 190.885 386.279 189.812 385.437C187.458 383.397 185.573 381.419 183.562 379.062C178.38 373.039 173.1 367.512 165 366C158.628 365.763 153.934 366.755 149 371C143.299 377.058 142.54 381.053 142.582 389.309C143.217 394.921 145.602 398.604 149 403C149.681 403.928 150.361 404.856 151.062 405.812C163.006 419.297 177.177 430.847 192.375 440.437C193.029 440.851 193.683 441.264 194.357 441.69C198.448 444.211 202.541 446.208 207 448C203.255 450.497 199.947 451.776 195.562 452.812C191.496 453.788 187.566 455.114 183.625 456.5C182.421 456.923 181.217 457.346 179.977 457.781C176.943 458.799 176.943 458.799 175 461C173.23 461.816 173.23 461.816 171.188 462.562C170.521 462.811 169.855 463.06 169.168 463.316C168.095 463.655 168.095 463.655 167 464C166.263 464.294 165.525 464.588 164.766 464.891C160.267 465.068 157.248 462.578 153.562 460.187C152.766 459.684 151.97 459.181 151.15 458.662C139.6 451.29 128.776 443.318 118.471 434.288C117.118 433.103 115.753 431.932 114.387 430.762C107.393 424.66 101.169 417.917 95 411C94.4395 410.377 93.879 409.755 93.3015 409.113C77.1589 390.981 65.8513 370.502 56.0825 348.436C54.657 345.228 53.2 342.043 51.6875 338.875C51.2789 338.006 50.8702 337.137 50.4492 336.242C47.6843 331.964 43.8177 329.456 39 328C36.334 327.567 33.6898 327.273 31 327C37.7977 322.468 46.9629 321.527 55 322Z" fill="#ACDAE9"/>
<path d="M43.3125 328.625C51.5132 332.788 54.2356 341.621 57.5625 349.563C68.2535 374.255 81.8906 396.227 100.655 415.585C102.37 417.389 103.969 419.277 105.562 421.188C127.792 446.795 161.042 467.189 192.875 478C199.439 480.371 203.964 483.568 207.309 489.977C209.059 495.1 208.595 500.181 206.938 505.25C203.236 510.504 198.133 515.223 191.652 516.441C160.356 517.837 124.523 490.459 101 472C100.04 471.254 99.0793 470.507 98.0898 469.738C81.6891 456.671 67.478 441.827 55 425C54.5981 424.466 54.1963 423.931 53.7822 423.381C41.6276 407.181 31.9469 389.914 23.9932 371.3C23.3664 369.848 22.7198 368.406 22.0459 366.976C20.424 363.49 19.6515 361.115 20.375 357.313C20.8189 354.863 21.087 353.328 20.4453 350.906C20 349 20 349 21.5 346.188C23.3429 342.271 23.0555 340.141 22 336C21.34 335.67 20.68 335.34 20 335C21.3958 331.627 22.9237 329.958 26 328C31.7284 326.091 37.7756 326.088 43.3125 328.625Z" fill="#063E5D"/>
<path d="M345 18.9999C347 19.9999 347 19.9999 350 21.9999C350 22.6599 350 23.3199 350 23.9999C351.64 23.4431 351.64 23.4431 353.313 22.8749C354.529 22.5862 355.746 22.2974 357 21.9999C357.99 22.6599 358.98 23.3199 360 23.9999C360.776 23.8313 361.553 23.6627 362.353 23.489C365.774 22.857 367.254 23.6646 370.359 25.1757C371.385 25.6692 372.412 26.1627 373.469 26.6711C374.552 27.2127 375.634 27.7544 376.75 28.3124C377.859 28.8599 378.967 29.4073 380.109 29.9714C383.419 31.6236 386.712 33.3045 390 34.9999C390.929 35.4756 391.858 35.9513 392.814 36.4413C395.23 37.6977 397.619 38.9922 400 40.3124C400.705 40.6834 401.41 41.0545 402.136 41.4367C405.741 43.521 406.886 44.5834 408 48.6679C408 51.9999 408 51.9999 407 53.9999C410.058 54.5437 412.888 54.9999 416 54.9999C416 57.6399 416 60.2799 416 62.9999C416.928 62.8143 417.856 62.6287 418.812 62.4374C422 61.9999 422 61.9999 425 62.9999C425.99 62.9999 426.98 62.9999 428 62.9999C428.33 63.6599 428.66 64.3199 429 64.9999C430.485 65.9899 430.485 65.9899 432 66.9999C432.688 69.1249 432.688 69.1249 433 70.9999C433.557 70.7731 434.114 70.5462 434.688 70.3124C438.098 69.8515 439.247 70.951 442 72.9999C443.815 74.7314 445.569 76.509 447.312 78.3124C449.058 80.129 449.058 80.129 451.5 81.9374C455.117 84.9215 457.974 88.4296 461 91.9999C461.804 92.9165 462.609 93.833 463.438 94.7773C473.399 106.198 482.363 118.448 490.375 131.312C490.763 131.916 491.15 132.52 491.549 133.142C493.252 135.969 494.039 137.586 493.727 140.918C493.487 141.605 493.247 142.292 493 143C493.66 143 494.32 143 495 143C495.671 144.623 496.337 146.249 497 147.875C497.371 148.78 497.743 149.685 498.125 150.617C499 153 499 153 499 155C499.66 155 500.32 155 501 155C501.326 155.857 501.652 156.714 501.988 157.598C504.722 164.828 504.722 164.828 507.75 171.937C508.994 174.985 509.462 177.771 510 181C510.66 181.33 511.32 181.66 512 182C512.207 188.349 512.337 194.028 510 200C507.333 201.333 505.833 200.671 503 200C503.186 200.763 503.371 201.526 503.562 202.312C504 205 504 205 503 208C498.817 210.092 493.556 209.43 489 209C485.562 207.312 485.562 207.312 483 205C482.201 204.319 481.402 203.639 480.578 202.937C477.26 199.156 475.888 195.37 474.188 190.687C470.669 181.459 466.598 172.733 462 164C461.51 163.041 461.02 162.082 460.516 161.094C454.314 149.249 446.614 138.206 438 128C437.57 127.481 437.14 126.962 436.697 126.428C426.178 113.74 415.035 102.136 402 91.9999C401.006 91.2007 400.012 90.4015 398.988 89.5781C380.801 75.0727 360.227 64.2428 338.74 55.4863C333.418 53.2702 328.99 51.231 325 46.9999C324.633 44.8671 324.633 44.8671 325.125 42.8749C326.11 39.1743 326.11 39.1743 326 35.9999C326.165 35.4224 326.33 34.8449 326.5 34.2499C327.156 31.8021 327.156 31.8021 326.75 28.4374C326.833 27.3031 326.915 26.1687 327 24.9999C329.5 23.0624 329.5 23.0624 332 21.9999C332 22.6599 332 23.3199 332 23.9999C335.545 22.6023 335.545 22.6023 339 20.9999C340.333 20.6666 341.667 20.3333 343 19.9999C343.66 19.6699 344.32 19.3399 345 18.9999Z" fill="#11678D"/>
<path d="M95.9998 128C98.802 133.231 99.0705 136.373 98.0623 142.25C93.9245 171.51 96.0657 204.797 110 231.25C110.667 232.547 111.333 233.844 112 235.141C113.045 237.159 114.092 239.177 115.14 241.193C115.507 241.908 115.873 242.623 116.25 243.359C116.585 244.009 116.92 244.658 117.265 245.327C118 247 118 247 118 249C103.522 250.663 103.522 250.663 98.0311 247.043C95.9148 244.696 94.0071 242.316 92.2108 239.716C90.9072 237.869 89.5186 236.119 88.0936 234.363C75.9998 219.424 75.9998 219.424 75.9998 216C75.3398 216 74.6798 216 73.9998 216C72.9922 214.234 71.9939 212.462 70.9998 210.688C70.1645 209.208 70.1645 209.208 69.3123 207.699C67.9998 205 67.9998 205 67.9998 202C67.3398 202 66.6798 202 65.9998 202C65.0204 199.229 64.0412 196.458 63.0623 193.688C62.7846 192.902 62.5068 192.116 62.2205 191.307C61.9531 190.549 61.6856 189.792 61.41 189.012C61.0408 187.967 61.0408 187.967 60.6642 186.901C58.9736 182.063 58.9736 182.063 60.3006 178.875C60.9603 177.578 61.6318 176.286 62.3123 175C62.8571 173.948 62.8571 173.948 63.4129 172.875C64.1972 171.363 64.9856 169.854 65.7777 168.347C66.9915 166.016 68.1688 163.669 69.3397 161.316C74.9702 150.137 81.5242 140.032 88.9998 130C89.6238 130.195 90.2477 130.389 90.8905 130.59C91.5866 130.725 92.2827 130.861 92.9998 131C94.7718 129.646 94.7718 129.646 95.9998 128Z" fill="#ADDFEF"/>
<path d="M417 291C448.02 291 479.04 291 511 291C511 291.33 511 291.66 511 292C483.94 292 456.88 292 429 292C432.289 297.796 432.289 297.796 435.953 303.234C436.486 303.967 437.018 304.7 437.567 305.456C438.122 306.213 438.678 306.97 439.25 307.75C439.829 308.547 440.408 309.344 441.005 310.166C443.412 313.475 445.831 316.774 448.277 320.055C453.611 327.231 458.32 334.743 462.982 342.365C463.956 343.93 464.977 345.466 466 347C466 347.99 466 348.98 466 350C466.66 350 467.32 350 468 350C468.124 350.639 468.247 351.279 468.375 351.937C468.581 352.618 468.787 353.299 469 354C469.99 354.495 469.99 354.495 471 355C466.907 364.264 462.506 373.208 457.25 381.875C456.791 382.641 456.331 383.407 455.858 384.197C451.602 391.078 451.602 391.078 448 393C447.01 393 446.02 393 445 393C444.732 393.639 444.464 394.279 444.187 394.937C443 397 443 397 440 398C439.67 398.66 439.34 399.32 439 400C439.66 400.33 440.32 400.66 441 401C438.013 403.572 435.861 405.216 432 406C432.143 403.541 432.29 401.083 432.437 398.625C432.477 397.946 432.516 397.266 432.557 396.566C432.785 392.799 433.098 389.063 433.523 385.312C436.479 356.485 433.012 327.666 420.516 301.41C419 298 419 298 417 291Z" fill="#AEDBEA"/>
<path d="M201 19C205.724 23.6067 208.152 26.9443 208.313 33.625C208.252 39.2088 207.552 43.5842 204 48C199.754 52.0662 196.001 53.9217 190.375 55.625C181.574 58.5705 176.448 63.46 170 70C168.69 71.0307 167.366 72.0455 166 73C166.121 65.9964 166.121 65.9964 168.555 63.2383C169.777 62.2312 171.028 61.2571 172.309 60.3242C174.275 58.9275 174.275 58.9275 176 56C176.743 56.0825 177.485 56.165 178.25 56.25C181.021 56.3016 181.021 56.3016 182.414 54.5235C182.896 53.897 183.378 53.2705 183.875 52.625C187.363 48.1666 190.943 47.5632 196.375 46.5625C196.911 46.3769 197.448 46.1913 198 46C198.495 44.515 198.495 44.515 199 43C199.66 43 200.32 43 201 43C201 42.01 201 41.02 201 40C201.99 39.67 202.98 39.34 204 39C205.23 35.4881 205.23 35.4881 206 32C205.01 31.67 204.02 31.34 203 31C203.33 29.02 203.66 27.04 204 25C203.34 25.66 202.68 26.32 202 27C201.34 27.66 200.68 28.32 200 29C200 27.35 200 25.7 200 24C199.34 24 198.68 24 198 24C198 23.34 198 22.68 198 22C197.34 22.3713 196.68 22.7425 196 23.125C191.772 24.3582 189.217 23.1752 185 22C184.34 22.33 183.68 22.66 183 23C182.01 22.67 181.02 22.34 180 22C178.319 22.6303 176.652 23.2979 175 24C174.01 24 173.02 24 172 24C170.318 24.626 168.648 25.2875 167 26C167 27.98 167 29.96 167 32C162 32 157 32 152 32C151.01 35.465 151.01 35.465 150 39C147.184 39.7241 145.305 40.067 142.438 39.4375C140.033 38.8183 140.033 38.8183 137.875 39.625C134.905 41.8029 133.616 44.7675 132 48C130.928 48.1238 129.855 48.2475 128.75 48.375C124.599 49.0668 122.941 50.0594 120 53C119.67 53.99 119.34 54.98 119 56C117.02 56 115.04 56 113 56C111.586 58.6391 110.628 61.0712 110 64C109.423 64.0619 108.845 64.1238 108.25 64.1875C105.132 65.3134 103.986 67.418 102 70C101.34 70 100.68 70 100 70C100 70.66 100 71.32 100 72C98.1129 72.1547 98.1129 72.1547 96.1876 72.3125C93.7532 72.6345 92.2417 72.855 90.1251 74.125C88.7893 76.13 88.7893 76.13 88.2501 79.3125C86.7883 83.6249 85.118 85.0063 81.5587 87.6406C79.7119 89.0195 79.7119 89.0195 79.0001 92C78.3401 92 77.6801 92 77.0001 92C76.4887 88.8682 76.3484 86.119 77.0001 83C79.2976 80.1659 82.083 78.1645 85.0001 76C85.7838 75.2163 86.5676 74.4325 87.3751 73.625C107.955 53.045 170.728 1.29361 201 19Z" fill="#177495"/>
<path d="M381 249C398.203 248.906 415.406 248.836 432.609 248.793C440.597 248.772 448.585 248.744 456.573 248.698C463.537 248.658 470.501 248.633 477.466 248.624C481.152 248.618 484.837 248.606 488.523 248.577C492.643 248.545 496.763 248.544 500.883 248.546C502.098 248.532 503.313 248.517 504.564 248.502C511.522 248.536 516.096 249.227 522 253C524 255.25 524 255.25 525 257C524.01 257.33 523.02 257.66 522 258C521.01 256.515 521.01 256.515 520 255C511.613 252.928 502.765 252.886 494.169 252.963C492.308 252.971 490.447 252.978 488.586 252.985C487.653 252.989 486.719 252.992 485.757 252.996C481.552 253.002 477.348 252.96 473.143 252.908C472.332 252.898 471.521 252.889 470.686 252.879C469.018 252.858 467.35 252.836 465.682 252.815C463.004 252.78 460.327 252.747 457.65 252.714C452.931 252.656 448.212 252.596 443.493 252.536C435.925 252.44 428.357 252.345 420.789 252.252C418.182 252.22 415.575 252.186 412.968 252.152C403.311 252.031 393.658 251.972 384 252C384 251.34 384 250.68 384 250C383.01 249.67 382.02 249.34 381 249Z" fill="#0D4862"/>
<path d="M215 86C215.99 86.33 216.98 86.66 218 87C217.34 87.66 216.68 88.32 216 89C215.281 91.3177 214.609 93.651 214 96C212.35 96 210.7 96 209 96C208.567 96.9488 208.134 97.8975 207.688 98.875C206 102 206 102 203 104C203 103.34 203 102.68 203 102C202.34 102 201.68 102 201 102C200.567 103.454 200.567 103.454 200.125 104.938C199 108 199 108 197 109C197.33 109.99 197.66 110.98 198 112C197.01 112.33 196.02 112.66 195 113C194.691 114.093 194.381 115.186 194.062 116.313C192.966 120.116 191.98 121.517 189 124C188.34 123.34 187.68 122.68 187 122C186.845 123.114 186.845 123.114 186.688 124.25C186 127 186 127 184.438 128.938C182.517 131.693 182.928 133.71 183 137C182.34 137.66 181.68 138.32 181 139C181.32 141.603 181.32 141.603 182 144C180.68 144.66 179.36 145.32 178 146C178 145.01 178 144.02 178 143C177.34 143 176.68 143 176 143C177.994 121.97 191.445 104.594 207.219 91.4063C209.762 89.3988 212.164 87.5831 215 86Z" fill="#166D8E"/>
<path d="M38.9999 288C53.4379 287.93 67.8759 287.877 82.3141 287.845C89.0177 287.829 95.7212 287.808 102.425 287.774C108.889 287.741 115.353 287.723 121.818 287.715C124.289 287.71 126.76 287.699 129.232 287.683C132.682 287.661 136.133 287.658 139.583 287.659C140.614 287.649 141.645 287.638 142.707 287.627C143.644 287.631 144.58 287.635 145.545 287.639C146.362 287.636 147.179 287.634 148.02 287.631C149 287.814 149 287.814 150 288C150.99 289.485 150.99 289.485 152 291C108.11 291 64.2199 291 18.9999 291C18.9999 290.67 18.9999 290.34 18.9999 290C25.5999 290 32.1999 290 38.9999 290C38.9999 289.34 38.9999 288.68 38.9999 288Z" fill="#024F64"/>
<path d="M352 355C352.66 355.33 353.32 355.66 354 356C358.437 371.037 356.775 387.3 352 402C351.626 403.152 351.252 404.305 350.867 405.492C346.034 419.095 337.875 428.8 328 439C327.67 438.34 327.34 437.68 327 437C324.975 436.348 324.975 436.348 323 436C323.33 435.01 323.66 434.02 324 433C326 433 328 433 330 433C330.33 431.35 330.66 429.7 331 428C332.32 428 333.64 428 335 428C334.67 427.01 334.34 426.02 334 425C334.495 424.361 334.99 423.721 335.5 423.062C337.281 421.115 337.281 421.115 336.688 418.75C336.347 417.884 336.347 417.884 336 417C339.465 416.505 339.465 416.505 343 416C342.969 414.298 342.969 414.298 342.938 412.562C343 409 343 409 344 408C343.835 407.381 343.67 406.762 343.5 406.125C343 404 343 404 344 401C346.475 400.505 346.475 400.505 349 400C349.66 397.36 350.32 394.72 351 392C351.66 392 352.32 392 353 392C352.505 373.685 352.505 373.685 352 355Z" fill="#10415B"/>
<path d="M446 457C429.105 474.925 407.683 488.538 386 500C384.947 500.574 383.894 501.147 382.808 501.738C380 503 380 503 376 503C376 502.34 376 501.68 376 501C376.66 501 377.32 501 378 501C378 500.34 378 499.68 378 499C381.181 497.115 383.344 496.909 387 497C388.343 496.71 389.682 496.39 391 496C391.33 493.36 391.66 490.72 392 488C393.856 488.031 393.856 488.031 395.75 488.062C399.976 488.114 399.976 488.114 404 487C404.33 486.01 404.66 485.02 405 484C405.99 484 406.98 484 408 484C407.67 482.68 407.34 481.36 407 480C409.31 480 411.62 480 414 480C415.125 478.167 415.125 478.167 416 476C415.505 474.515 415.505 474.515 415 473C416.887 472.876 416.887 472.876 418.812 472.75C422.224 472.34 422.224 472.34 424.875 470.187C426.027 468.031 426.027 468.031 426.875 465.812C428 464 428 464 430.312 463.312C432.102 463.104 433.894 462.917 435.687 462.75C436.451 462.502 437.214 462.255 438 462C439.233 459.543 439.233 459.543 440 457C442.491 455.754 443.411 456.223 446 457Z" fill="#0D3D54"/>
<path d="M362 21.9999C360.617 23.5195 360.617 23.5195 359 24.9999C357.125 24.6874 357.125 24.6874 355 23.9999C353.334 23.9621 351.666 23.9536 350 23.9999C350 23.3399 350 22.6799 350 21.9999C348.054 21.4092 348.054 21.4092 346 20.9999C345.67 21.3299 345.34 21.6599 345 21.9999C343.866 21.9793 342.731 21.9587 341.563 21.9374C337.949 21.5883 337.949 21.5883 336 23.9999C334.794 23.7524 334.794 23.7524 333.563 23.4999C330.772 22.6435 330.772 22.6435 328 24.9999C327.711 27.0754 327.711 27.0754 327.938 29.3749C328.168 32.9108 327.804 34.9256 326 37.9999C326.33 38.3299 326.66 38.6599 327 38.9999C327.041 40.6661 327.043 42.3338 327 43.9999C326.01 44.3299 325.02 44.6599 324 44.9999C321.251 38.9955 320.694 32.1701 322.688 25.8046C331.153 9.50844 349.148 16.5818 362 21.9999Z" fill="#1B7798"/>
<path d="M519 285C519.99 285 520.98 285 522 285C521 288 521 288 517.963 289.666C513.808 291.284 510.002 291.404 505.586 291.341C504.37 291.341 504.37 291.341 503.13 291.342C500.473 291.34 497.817 291.317 495.16 291.293C493.309 291.287 491.458 291.283 489.607 291.28C484.753 291.269 479.898 291.239 475.044 291.206C470.083 291.175 465.123 291.162 460.162 291.146C450.441 291.114 440.721 291.063 431 291C436.23 288.198 440.594 287.864 446.475 287.934C447.595 287.941 447.595 287.941 448.738 287.948C450.356 287.959 451.973 287.971 453.591 287.986C456.151 288.008 458.71 288.022 461.269 288.034C468.545 288.067 475.82 288.109 483.095 288.171C487.548 288.209 492 288.232 496.453 288.246C498.15 288.254 499.848 288.267 501.545 288.287C503.915 288.313 506.284 288.321 508.654 288.325C509.357 288.337 510.06 288.349 510.785 288.362C514.603 288.391 514.603 288.391 517.771 286.48C518.177 285.991 518.582 285.503 519 285Z" fill="#054E62"/>
<path d="M281 74C298.945 77.8999 315.066 82.7779 331 92C331 93.32 331 94.64 331 96C330.464 95.8143 329.927 95.6287 329.375 95.4375C326.38 94.8858 323.963 95.394 321 96C320.34 93.69 319.68 91.38 319 89C315.227 87.9219 311.793 87.9683 307.875 88.125C305 88 305 88 303 86C302.722 85.3151 302.443 84.6302 302.156 83.9245C301.175 81.806 301.175 81.806 298.969 81.3781C297.747 81.2934 297.747 81.2934 296.5 81.207C295.613 81.1342 294.726 81.0613 293.812 80.9863C292.42 80.9003 292.42 80.9003 291 80.8125C289.166 80.6762 287.333 80.537 285.5 80.3945C284.685 80.3414 283.871 80.2883 283.031 80.2336C281 80 281 80 279 79C279.66 77.35 280.32 75.7 281 74Z" fill="#187092"/>
<path d="M279 7C283.198 10.8804 284.764 15.311 285.256 20.916C285.346 24.3649 285.337 27.8003 285.293 31.25C285.289 32.5039 285.284 33.7577 285.28 35.0496C285.266 38.3574 285.239 41.6647 285.206 44.9724C285.175 48.3578 285.162 51.7433 285.146 55.1289C285.114 61.7528 285.063 68.3764 285 75C284.01 75 283.02 75 282 75C282 74.01 282 73.02 282 72C282.66 72 283.32 72 284 72C283.67 69.03 283.34 66.06 283 63C282.67 63 282.34 63 282 63C281.662 60.2922 281.33 57.5838 281 54.875C280.857 53.7342 280.857 53.7342 280.711 52.5703C280.201 48.3418 280 44.2642 280 40C279.67 39.67 279.34 39.34 279 39C278.901 37.3984 278.87 35.7922 278.875 34.1875C278.872 33.3148 278.87 32.4421 278.867 31.543C279 29 279 29 279.57 26.8008C280.224 24.9135 280.224 24.9135 279 23C279.66 23 280.32 23 281 23C280.856 22.3477 280.711 21.6955 280.562 21.0234C279.554 16.2738 278.743 11.8859 279 7Z" fill="#1E7E9F"/>
<path d="M376 443C377.32 443.33 378.64 443.66 380 444C378.557 447.366 376.667 449.51 374 452C374.495 453.485 374.495 453.485 375 455C374.34 455 373.68 455 373 455C373 455.66 373 456.32 373 457C372.34 457 371.68 457 371 457C370.67 457.99 370.34 458.98 370 460C368 462 368 462 366 463C366.33 465.97 366.66 468.94 367 472C365.237 471.907 365.237 471.907 363.438 471.812C358.895 471.821 355.967 472.778 352 475C351.701 475.681 351.402 476.361 351.094 477.062C350 479 350 479 347.836 479.609C347.024 479.656 346.212 479.702 345.375 479.75C344.558 479.807 343.74 479.863 342.898 479.922C342.272 479.948 341.645 479.973 341 480C340.505 478.515 340.505 478.515 340 477C341.062 476.527 342.124 476.054 343.219 475.566C351.905 471.56 358.298 467.899 364 460C364.781 458.989 365.562 457.979 366.367 456.938C369.836 452.434 373.15 447.927 376 443Z" fill="#103E57"/>
<path d="M319 135C323.765 135.926 323.765 135.926 326 136.625C328.108 137.153 328.108 137.153 330.625 136.437C331.409 136.293 332.192 136.149 333 136C333.66 136.66 334.32 137.32 335 138C334.01 138.66 333.02 139.32 332 140C332.99 140.66 333.98 141.32 335 142C335 142.66 335 143.32 335 144C335.66 144.33 336.32 144.66 337 145C336.67 145.33 336.34 145.66 336 146C336.619 146.247 337.238 146.495 337.875 146.75C340.351 148.206 340.951 149.378 342 152C342.784 152 343.567 152 344.375 152C347.43 152 349.048 152.016 352 153C351.01 153.99 350.02 154.98 349 156C349.66 156.33 350.32 156.66 351 157C352.125 159.062 352.125 159.062 353 161C354.65 160.67 356.3 160.34 358 160C358.688 162.312 358.688 162.312 359 165C357.562 166.812 357.562 166.812 356 168C350.276 164.608 346.034 160.144 341.438 155.375C335.055 148.85 328.607 142.994 321.211 137.652C320.481 137.107 319.752 136.562 319 136C319 135.67 319 135.34 319 135Z" fill="#146489"/>
<path d="M277.566 4.9414C278.04 5.29074 278.513 5.64008 279 6C273.313 9.13779 266.39 8 260 8C259.01 8.33 258.02 8.66 257 9C255.336 9.3482 253.67 9.68404 252 10C251.67 10.99 251.34 11.98 251 13C250.01 13.495 250.01 13.495 249 14C248.348 16.0246 248.348 16.0246 248 18C247.01 18 246.02 18 245 18C245.48 12.9599 246.761 9.90392 250 6C259.265 -1.07711 267.807 -1.77433 277.566 4.9414Z" fill="#207E9E"/>
<path d="M283 459C283.66 459.33 284.32 459.66 285 460C285.076 467.241 285.129 474.481 285.165 481.722C285.18 484.183 285.2 486.644 285.226 489.104C285.263 492.652 285.28 496.199 285.293 499.746C285.308 500.837 285.324 501.928 285.34 503.052C285.342 510.872 284.634 517.654 279.687 523.938C276.842 526.121 274.457 527.116 271 528C270.875 525.625 270.875 525.625 271 523C273.762 520.238 276.207 520.421 280 520C281.84 509.126 282.133 498.562 282.031 487.548C281.964 479.31 282.242 471.204 283 463C282.34 463 281.68 463 281 463C282 460 282 460 283 459Z" fill="#144658"/>
<path d="M395 352C398.715 357.573 398.114 364.147 398 370.625C397.919 375.224 398.057 379.484 399 384C398.125 386.5 398.125 386.5 397 389C396.631 390.659 396.287 392.325 396 394C396.66 394 397.32 394 398 394C398.187 396.875 398.187 396.875 398 400C397.01 400.66 396.02 401.32 395 402C395 402.763 395 403.526 395 404.312C395 407.71 393.863 409.206 392 412C391.319 413.326 390.647 414.657 390 416C389.856 410.395 390.302 405.356 391.437 399.875C392.9 392.528 394.14 385.483 394.316 377.977C394.337 377.23 394.358 376.484 394.379 375.715C394.444 373.352 394.503 370.989 394.562 368.625C394.606 367.014 394.649 365.404 394.693 363.793C394.8 359.862 394.901 355.931 395 352Z" fill="#0A3F59"/>
<path d="M511 339C511.99 339.33 512.98 339.66 514 340C516.296 357.478 505.868 374.018 498 389C496.477 387.629 496.477 387.629 495 386C495.375 383.937 495.375 383.937 496 382C495.67 381.34 495.34 380.68 495 380C495.66 379.01 496.32 378.02 497 377C497.66 377 498.32 377 499 377C502.136 375.398 502.136 375.398 502.477 373.047C502.526 372.289 502.575 371.531 502.625 370.75C502.72 369.553 502.72 369.553 502.816 368.332C502.877 367.562 502.938 366.793 503 366C503.316 363.997 503.642 361.996 504 360C504.598 359.959 505.196 359.917 505.812 359.875C508.265 359.143 508.265 359.143 509.625 356.406C511.186 352.54 511.305 349.775 511.187 345.625C511.16 344.38 511.133 343.134 511.105 341.852C511.053 340.44 511.053 340.44 511 339Z" fill="#0F445E"/>
<path d="M245 68.9999C245.66 68.9999 246.32 68.9999 247 68.9999C247 72.6299 247 76.2599 247 79.9999C246.01 79.9999 245.02 79.9999 244 79.9999C244 79.3399 244 78.6799 244 77.9999C243.34 77.9999 242.68 77.9999 242 77.9999C241.752 78.6187 241.505 79.2374 241.25 79.8749C239.777 82.3781 238.59 82.8304 236 83.9999C235.67 84.6599 235.34 85.3199 235 85.9999C232.672 86.6328 232.672 86.6328 229.75 87.1249C228.796 87.2925 227.842 87.4601 226.859 87.6328C224.147 87.9811 221.722 88.2909 219 87.9999C218.34 87.0099 217.68 86.0199 217 84.9999C235.382 75.2406 235.382 75.2406 245 75.9999C245 73.6899 245 71.3799 245 68.9999Z" fill="#137292"/>
<path d="M494 140C504.452 153.112 515.272 176.323 514.492 193.336C513.499 198.711 510.779 202.373 506.812 206C505 207 505 207 503 207C503 204.69 503 202.38 503 200C504.98 200 506.96 200 509 200C511.158 193.93 511.208 188.406 511 182C510.34 182 509.68 182 509 182C508.66 180.175 508.66 180.175 508.312 178.312C507.147 172.982 505.174 168.059 503.121 163.016C502.121 160.326 501.465 157.824 501 155C500.34 155 499.68 155 499 155C498.326 153.566 497.661 152.127 497 150.687C496.629 149.887 496.257 149.086 495.875 148.262C495 146 495 146 495 143C494.34 143 493.68 143 493 143C493.33 142.01 493.66 141.02 494 140Z" fill="#195C77"/>
<path d="M407 46C411.959 48.6998 416.358 51.6495 420.75 55.1875C421.348 55.6629 421.945 56.1383 422.561 56.6281C428.083 61.0328 433.555 65.4998 439 70C438.402 70.1443 437.804 70.2887 437.188 70.4375C435.438 70.8872 433.713 71.4289 432 72C431.938 71.2575 431.876 70.515 431.812 69.75C430.735 66.1018 429.218 64.9454 426 63C423.736 63.1256 423.736 63.1256 422 64C422 63.34 422 62.68 422 62C419.69 62.66 417.38 63.32 415 64C415 61.03 415 58.06 415 55C413.35 55.33 411.7 55.66 410 56C409.67 55.34 409.34 54.68 409 54C408.34 54 407.68 54 407 54C407 51.36 407 48.72 407 46Z" fill="#1D6D90"/>
<path d="M352 109C356.061 110.355 358.442 112.085 361.426 115.133C362.222 115.938 363.018 116.744 363.838 117.574C364.654 118.416 365.471 119.258 366.312 120.125C367.148 120.974 367.984 121.824 368.846 122.699C370.904 124.793 372.955 126.893 375 129C374.34 129.33 373.68 129.66 373 130C372.348 132.025 372.348 132.025 372 134C370 134 370 134 368 132C367.875 129.375 367.875 129.375 368 127C367.01 126.67 366.02 126.34 365 126C363 125.333 361 124.667 359 124C359 122.68 359 121.36 359 120C357.02 120 355.04 120 353 120C351.717 116.15 351.933 113.053 352 109Z" fill="#16658A"/>
<path d="M256 2.99993C254.568 3.81373 253.135 4.62753 251.703 5.44133C246.879 9.85626 245.741 14.1244 245.454 20.486C245.413 23.0746 245.392 25.6577 245.391 28.246C245.376 29.6261 245.359 31.0061 245.341 32.3862C245.297 35.9979 245.277 39.6094 245.262 43.2214C245.242 46.9153 245.2 50.6089 245.16 54.3027C245.085 61.535 245.035 68.7673 245 75.9999C244.01 75.6699 243.02 75.3399 242 74.9999C242.038 67.0367 242.098 59.074 242.184 51.1112C242.223 47.4132 242.256 43.7154 242.271 40.0173C242.286 36.4443 242.321 32.872 242.368 29.2994C242.383 27.9404 242.391 26.5813 242.392 25.2222C242.408 12.1076 242.408 12.1076 247 5.99993C247.66 5.99993 248.32 5.99993 249 5.99993C249 5.00993 249 4.01993 249 2.99993C252.01 2.06569 252.867 1.95543 256 2.99993Z" fill="#B8E3EB"/>
<path d="M166 73C163.181 78.0682 160.136 82.8935 156.875 87.6875C153.104 93.1481 153.104 93.1481 150 99C148.68 99 147.36 99 146 99C145.67 100.65 145.34 102.3 145 104C144.34 103.67 143.68 103.34 143 103C143.188 100.125 143.188 100.125 144 97C144.804 96.7525 145.609 96.505 146.438 96.25C149.184 95.2797 149.184 95.2797 149.773 92.8398C150.653 88.5122 151.087 84.4191 151 80C152.65 80 154.3 80 156 80C156.309 79.2163 156.619 78.4325 156.938 77.625C158 75 158 75 159 73C161.974 71.9096 162.884 71.9614 166 73Z" fill="#166D8F"/>
<path d="M483.625 407.875C484.409 407.916 485.192 407.957 486 408C484.503 412.353 482.186 415.871 479.5 419.562C479.064 420.167 478.629 420.771 478.18 421.393C473.738 427.48 469.063 433.415 464 439C463.67 439 463.34 439 463 439C463 434.38 463 429.76 463 425C464.32 424.67 465.64 424.34 467 424C468.75 425.438 468.75 425.438 470 427C470.248 426.092 470.495 425.185 470.75 424.25C472.054 420.859 473.169 419.231 476 417C476.99 417 477.98 417 479 417C478.959 415.886 478.918 414.773 478.875 413.625C479.02 409.426 479.274 408.082 483.625 407.875Z" fill="#0D3D57"/>
<path d="M448 391C448.66 391.66 449.32 392.32 450 393C442.214 403.179 434.413 413.325 426 423C425 421 425 421 425.707 418.68C426.072 417.754 426.436 416.829 426.812 415.875C428.563 411.278 429.915 406.793 431 402C431.99 402 432.98 402 434 402C434 402.99 434 403.98 434 405C438.281 401.224 438.281 401.224 440 396C440.639 395.876 441.279 395.752 441.937 395.625C442.618 395.419 443.299 395.213 444 395C444.33 394.34 444.66 393.68 445 393C445.99 393 446.98 393 448 393C448 392.34 448 391.68 448 391Z" fill="#9BCDE5"/>
<path d="M494.687 326.938C495.9 326.951 495.9 326.951 497.137 326.965C498.059 326.982 498.059 326.982 499 327C499 327.66 499 328.32 499 329C498.031 329.124 497.061 329.248 496.062 329.375C494.546 329.684 494.546 329.684 493 330C492.67 330.66 492.34 331.32 492 332C489.437 332.625 489.437 332.625 487 333C487 333.99 487 334.98 487 336C486.257 336.206 485.515 336.413 484.75 336.625C481.137 338.432 479.901 340.48 478 344C478 345.32 478 346.64 478 348C477.794 349.196 477.587 350.393 477.375 351.625C477.189 353.296 477.189 353.296 477 355C477.66 355.66 478.32 356.32 479 357C478.34 357.99 477.68 358.98 477 360C474 359 474 359 472 356C472.312 353.625 472.312 353.625 473 351C473.125 350.243 473.25 349.487 473.379 348.707C475.152 340.979 479.124 333.869 485.387 328.988C488.498 327.082 491.141 326.886 494.687 326.938Z" fill="#0E4762"/>
<path d="M295 448C296.609 448.278 296.609 448.278 298.25 448.562C301.554 448.948 302.96 448.838 306 448C308.25 448.438 308.25 448.438 310 449C310 449.66 310 450.32 310 451C301.433 454.916 293.261 458.066 284 460C284 460.66 284 461.32 284 462C283.67 462.33 283.34 462.66 283 463C282.959 465.333 282.958 467.667 283 470C282.01 470.33 281.02 470.66 280 471C279.229 466.277 278.902 461.785 279 457C282.462 455.933 285.64 455.898 289.25 455.938C290.328 455.947 291.405 455.956 292.516 455.965C293.335 455.976 294.155 455.988 295 456C295 453.36 295 450.72 295 448Z" fill="#093D59"/>
<path d="M33.9999 292C74.9199 292 115.84 292 158 292C158 292.66 158 293.32 158 294C156.02 294.33 154.04 294.66 152 295C152 294.34 152 293.68 152 293C151.197 293.03 150.394 293.061 149.567 293.092C133.145 293.694 116.742 294.095 100.308 294.063C99.1465 294.06 99.1465 294.06 97.9611 294.058C92.4532 294.046 86.9453 294.024 81.4374 294C75.8353 293.976 70.2332 293.956 64.631 293.944C62.4331 293.938 60.2352 293.925 58.0373 293.912C51.6112 293.889 45.3533 293.963 38.9999 295C38.9999 294.34 38.9999 293.68 38.9999 293C37.3499 293 35.6999 293 33.9999 293C33.9999 292.67 33.9999 292.34 33.9999 292Z" fill="#F4FEFE"/>
<path d="M51 116C53.475 116.99 53.475 116.99 56 118C55.01 118.495 55.01 118.495 54 119C54.2062 119.928 54.4125 120.856 54.625 121.813C55 125 55 125 53 128C52.01 128 51.02 128 50 128C47.4894 130.704 46.9233 132.307 46 136C43.03 136.66 40.06 137.32 37 138C40.6433 130.109 44.7987 122.201 51 116Z" fill="#126184"/>
<path d="M71.9999 88.0001C72.8263 90.8924 72.9999 92.8875 72.9999 96.0001C72.3399 96.0001 71.6799 96.0001 70.9999 96.0001C69.9033 99.2898 70.2003 100.713 70.9999 104C70.2368 103.938 69.4736 103.876 68.6874 103.813C66.0198 103.772 66.0198 103.772 64.2499 105.188C62.7115 107.418 62.3598 109.336 61.9999 112C60.6799 111.67 59.3599 111.34 57.9999 111C57.5668 111.804 57.1336 112.609 56.6874 113.438C54.9999 116 54.9999 116 51.9999 117C51.9999 112.917 54.0478 110.728 56.3749 107.563C56.8188 106.949 57.2627 106.336 57.7201 105.705C62.2109 99.5753 67.0439 93.7574 71.9999 88.0001Z" fill="#1B6C88"/>
<path d="M242.562 455.938C243.697 455.958 244.831 455.979 246 456C246.98 458.939 247.116 460.792 247.098 463.851C247.094 464.836 247.091 465.82 247.088 466.835C247.079 467.898 247.071 468.96 247.062 470.055C247.059 471.148 247.055 472.242 247.051 473.369C247.035 478.054 247.006 482.74 246.979 487.425C246.961 490.843 246.949 494.262 246.937 497.68C246.929 498.738 246.921 499.797 246.912 500.887C246.909 501.878 246.906 502.869 246.902 503.89C246.897 504.758 246.892 505.626 246.886 506.521C247.006 509.132 247.304 511.479 248 514C248.66 514.33 249.32 514.66 250 515C250 515.66 250 516.32 250 517C248.68 517 247.36 517 246 517C244.714 514.429 244.88 512.603 244.886 509.724C244.886 508.623 244.887 507.522 244.887 506.388C244.892 505.195 244.897 504.002 244.902 502.773C244.904 501.556 244.905 500.338 244.907 499.083C244.912 495.18 244.925 491.278 244.937 487.375C244.942 484.734 244.947 482.094 244.951 479.453C244.962 472.969 244.979 466.484 245 460C243.68 460 242.36 460 241 460C241 459.34 241 458.68 241 458C240.01 457.67 239.02 457.34 238 457C239 456 239 456 242.562 455.938Z" fill="#08364D"/>
<path d="M254 113C254 113.33 254 113.66 254 114C256.475 114.495 256.475 114.495 259 115C259 115.33 259 115.66 259 116C258.345 116.075 257.69 116.15 257.016 116.227C245.454 117.892 236.255 122.805 228 131C227.175 131.804 226.35 132.609 225.5 133.437C225.005 133.953 224.51 134.469 224 135C223.67 133.02 223.34 131.04 223 129C223.578 128.685 224.155 128.371 224.75 128.047C225.493 127.619 226.235 127.191 227 126.75C227.743 126.332 228.485 125.915 229.25 125.484C229.828 124.995 230.405 124.505 231 124C231 122.68 231 121.36 231 120C233.64 120 236.28 120 239 120C239.33 117.69 239.66 115.38 240 113C244.793 111.608 249.151 112.313 254 113Z" fill="#196F8D"/>
<path d="M338.566 13.8515C344.999 13.6189 350.055 14.6096 356 16.9999C356.99 17.3299 357.98 17.6599 359 17.9999C359 18.6599 359 19.3199 359 19.9999C360.32 19.9999 361.64 19.9999 363 19.9999C363.495 21.4849 363.495 21.4849 364 22.9999C362.688 22.5624 361.375 22.1249 360.063 21.6874C359.236 21.4167 358.41 21.146 357.559 20.8671C355.955 20.3237 354.362 19.75 352.785 19.1328C345.755 16.463 338.732 15.6428 331.563 18.2499C327.636 20.9314 324.731 23.5212 323 27.9999C322.758 31.5086 322.758 31.5086 322.875 35.2499C322.893 36.5132 322.911 37.7765 322.93 39.0781C322.953 40.0423 322.976 41.0065 323 41.9999C322.34 41.6699 321.68 41.3399 321 40.9999C320.766 37.7929 320.625 34.588 320.5 31.3749C320.433 30.4713 320.366 29.5677 320.297 28.6367C320.104 22.0312 320.104 22.0312 322.7 19.0434C327.935 15.0088 332.008 14.2308 338.566 13.8515Z" fill="#D0F2F8"/>
<path d="M311 389C311.66 389.99 312.32 390.98 313 392C312.057 394.357 311.054 396.69 310 399C310 400.32 310 401.64 310 403C309.312 405.125 309.312 405.125 308 407C305.375 408.25 305.375 408.25 303 409C303 410.65 303 412.3 303 414C300.005 414.872 297.364 415.108 294.25 415.062C293.451 415.053 292.652 415.044 291.828 415.035C291.225 415.023 290.622 415.012 290 415C292.217 412.713 294.384 410.496 296.867 408.496C303.25 403.343 308.379 396.862 311 389Z" fill="#0D4059"/>
<path d="M106 105C106.99 105.33 107.98 105.66 109 106C109.33 108.31 109.66 110.62 110 113C109.01 113.495 109.01 113.495 108 114C108.99 114.66 109.98 115.32 111 116C111 116.66 111 117.32 111 118C109.298 118.773 109.298 118.773 107.562 119.563C105.594 120.589 105.594 120.589 104 122C103.176 125.519 103.176 125.519 103 129C101.437 130.938 101.437 130.938 99.9999 132C100.545 124.913 102.609 118.672 105 112C104.518 112.482 104.036 112.964 103.539 113.461C101.026 115.974 98.5129 118.487 95.9999 121C94.9999 114.25 94.9999 114.25 94.9999 112C97.6399 112 100.28 112 103 112C103.309 111.031 103.619 110.061 103.937 109.063C105 106 105 106 106 105Z" fill="#16698D"/>
<path d="M379 136C383.107 141 383.607 145.595 383 152C381.815 158.219 378.794 161.627 374.035 165.652C371.986 167.009 370.403 167.575 368 168C367.67 167.34 367.34 166.68 367 166C367.66 166 368.32 166 369 166C368.67 165.01 368.34 164.02 368 163C369.32 163.33 370.64 163.66 372 164C373.442 161.424 374.172 159.286 374.875 156.375C376 153 376 153 378.125 151.562C378.744 151.377 379.363 151.191 380 151C380.167 148.083 380.167 148.083 380 145C379.34 144.34 378.68 143.68 378 143C378.375 139.375 378.375 139.375 379 136Z" fill="#176687"/>
<path d="M19.0001 334C20.9376 334.5 20.9376 334.5 23.0001 336C24.5326 342.13 23.8087 344.383 21.0001 350C21.0254 352.789 21.477 355.242 22.0001 358C21.0101 358.66 20.0201 359.32 19.0001 360C15.7967 353.059 14.2574 345.388 16.6798 337.898C17.5001 336.25 17.5001 336.25 19.0001 334Z" fill="#0E4766"/>
<path d="M105 111C106 113 106 113 105.074 116.266C104.619 117.596 104.157 118.924 103.687 120.25C103.348 121.234 103.348 121.234 103.002 122.238C102.554 123.537 102.103 124.834 101.65 126.131C100.741 128.745 99.8691 131.372 98.9999 134C96.9999 132 96.9999 132 95.9999 129C95.0099 129.99 94.0199 130.98 92.9999 132C92.0099 131.01 91.0199 130.02 89.9999 129C99.2254 116.33 99.2254 116.33 105 111Z" fill="#9AD6EF"/>
<path d="M146 99.0001C146.99 99.0001 147.98 99.0001 149 99.0001C147.537 103.431 146.06 107.856 144.5 112.254C141.057 122.079 138.598 131.714 137 142C136.67 142 136.34 142 136 142C134.507 135.371 133.178 127.249 136.875 121.188C137.927 119.61 137.927 119.61 139 118C139.685 115.672 140.349 113.338 141 111C142.595 106.969 144.287 102.982 146 99.0001Z" fill="#196686"/>
<path d="M50 192C52.475 192.99 52.475 192.99 55 194C52.1854 200.337 49.487 205.363 42.9375 208.437C40 209 40 209 37.625 208.125C37.0888 207.754 36.5525 207.382 36 207C36.66 206.34 37.32 205.68 38 205C38.66 205.33 39.32 205.66 40 206C39.67 205.01 39.34 204.02 39 203C40.375 201.5 40.375 201.5 42 200C43.6667 200 45.3333 200 47 200C47.1238 199.237 47.2475 198.474 47.375 197.687C48 195 48 195 50 192Z" fill="#0F5B77"/>
<path d="M323 500C323.66 500 324.32 500 325 500C325.33 501.98 325.66 503.96 326 506C326.66 506 327.32 506 328 506C328.33 505.34 328.66 504.68 329 504C332.472 505.157 333.041 506.019 335 509C335.309 509.722 335.619 510.444 335.937 511.187C336.834 513.154 336.834 513.154 338.801 513.672C341.274 514.041 342.855 513.741 345.25 513.062C346.487 512.712 347.725 512.361 349 512C349.33 512.99 349.66 513.98 350 515C342.869 516.996 336.547 516.651 330 513C327.153 510.47 325.111 508.167 323 505C322.875 502.312 322.875 502.312 323 500Z" fill="#0B3C57"/>
<path d="M99.9999 132C100.33 132.99 100.66 133.98 101 135C101.66 135 102.32 135 103 135C102.814 136.238 102.629 137.475 102.437 138.75C102.047 141.833 102.073 144.013 103 147C103.432 151.43 103.432 151.43 101.625 153.813C99.9999 155 99.9999 155 97.9999 155C97.3399 156.32 96.6799 157.64 95.9999 159C97.1379 134.862 97.1379 134.862 99.9999 132Z" fill="#16698D"/>
<path d="M452 389C452.99 389.33 453.98 389.66 455 390C454.67 392.64 454.34 395.28 454 398C448.25 400 448.25 400 446 400C446 402.31 446 404.62 446 407C445.031 407.268 444.061 407.536 443.062 407.812C442.052 408.204 441.041 408.596 440 409C439.67 409.99 439.34 410.98 439 412C436.438 413.187 436.438 413.187 434 414C436.621 409.349 439.78 405.181 443 400.937C443.534 400.23 444.067 399.523 444.617 398.795C445.636 397.446 446.655 396.097 447.676 394.749C449.123 392.837 450.564 390.92 452 389Z" fill="#0B4460"/>
<path d="M61.2343 321.867C63.0557 321.865 63.0557 321.865 64.9139 321.863C66.1798 321.867 67.4457 321.871 68.7499 321.875C70.0003 321.871 71.2507 321.867 72.5389 321.863C78.7859 321.87 84.8264 322.023 90.9999 323C90.9999 323.66 90.9999 324.32 90.9999 325C89.0422 325.195 87.0837 325.38 85.1249 325.562C84.0343 325.667 82.9438 325.771 81.8202 325.879C78.9999 326 78.9999 326 76.9999 325C75.3786 324.939 73.7548 324.94 72.1327 324.973C70.6806 324.991 70.6806 324.991 69.1991 325.01C67.1574 325.045 65.1157 325.084 63.0741 325.127C62.1034 325.138 61.1328 325.149 60.1327 325.16C59.2447 325.177 58.3567 325.194 57.4418 325.211C54.8382 324.986 53.2343 324.317 50.9999 323C54.453 321.946 57.6341 321.871 61.2343 321.867Z" fill="#B5D7E1"/>
<path d="M335 95C347.81 102.785 347.81 102.785 351 107C350.812 109.312 350.812 109.312 350 111C347.69 111.33 345.38 111.66 343 112C342.67 109.36 342.34 106.72 342 104C341.031 103.876 340.061 103.752 339.062 103.625C338.052 103.419 337.041 103.213 336 103C334.646 100.291 334.935 97.9907 335 95Z" fill="#186A8E"/>
<path d="M245 18C245.99 18.33 246.98 18.66 248 19C247.928 20.0699 247.856 21.1398 247.781 22.2422C247.095 33.2657 246.917 44.232 247.037 55.2769C247.046 56.3379 247.054 57.399 247.063 58.4922C247.074 59.4343 247.086 60.3765 247.098 61.3472C247 64.0017 246.595 66.4153 246 69C245.67 69 245.34 69 245 69C245 52.17 245 35.34 245 18Z" fill="#147393"/>
<path d="M286.187 112.937C287.46 112.946 288.732 112.956 290.043 112.965C291.507 112.982 291.507 112.982 293 113C292.01 113.33 291.02 113.66 290 114C290 114.99 290 115.98 290 117C290.969 117.454 291.939 117.907 292.937 118.375C296 120 296 120 297 122C291.587 121.228 286.395 119.854 281.125 118.437C280.246 118.204 279.367 117.97 278.461 117.728C276.306 117.155 274.153 116.579 272 116C276.943 113.443 280.603 112.886 286.187 112.937Z" fill="#1C7195"/>
<path d="M370.687 503.875C371.9 503.902 371.9 503.902 373.137 503.93C374.059 503.964 374.059 503.964 375 504C371.168 507.382 366.637 508.936 361.937 510.75C361.122 511.079 360.307 511.407 359.467 511.746C358.682 512.052 357.898 512.357 357.09 512.672C356.377 512.951 355.664 513.231 354.929 513.518C353 514 353 514 350 513C350.66 513 351.32 513 352 513C352 512.34 352 511.68 352 511C352.66 511 353.32 511 354 511C354.66 509.35 355.32 507.7 356 506C357.093 506.041 358.186 506.082 359.312 506.125C363.777 505.974 366.14 503.743 370.687 503.875Z" fill="#0C3C57"/>
<path d="M303 120C305.691 120.176 308.329 120.618 311 121C312 127.625 312 127.625 312 131C307.05 128.36 302.1 125.72 297 123C297 122.34 297 121.68 297 121C298.207 121.031 298.207 121.031 299.438 121.062C301.934 121.296 301.934 121.296 303 120Z" fill="#1C7195"/>
<path d="M283 40C283.33 40 283.66 40 284 40C284 50.56 284 61.12 284 72C283.34 72 282.68 72 282 72C281.67 72.66 281.34 73.32 281 74C279.142 70.865 278.799 68.6253 279 65C279.66 65 280.32 65 281 65C281 62.03 281 59.06 281 56C281.33 56 281.66 56 282 56C282.33 50.72 282.66 45.44 283 40Z" fill="#187092"/>
<path d="M290 414C289.333 415.333 288.667 416.667 288 418C287.74 418.692 287.479 419.385 287.211 420.098C286 422 286 422 283.906 422.574C282.715 422.63 282.715 422.63 281.5 422.688C278.121 422.839 278.121 422.839 275 424C274.67 422.35 274.34 420.7 274 419C276.29 418.163 278.582 417.33 280.875 416.5C281.526 416.262 282.177 416.023 282.848 415.777C287.773 414 287.773 414 290 414Z" fill="#0D4059"/>
<path d="M324 438C324.33 438.99 324.66 439.98 325 441C315.774 448.667 315.774 448.667 310 450C310.165 449.278 310.33 448.556 310.5 447.812C310.976 445.136 311.077 442.71 311 440C311.99 440 312.98 440 314 440C314 440.99 314 441.98 314 443C316.352 442.401 318.686 441.731 321 441C321.33 440.34 321.66 439.68 322 439C322.66 439.33 323.32 439.66 324 440C324 439.34 324 438.68 324 438Z" fill="#0A3D59"/>
</svg>
